#define hilight_width 16
#define hilight_height 16
static unsigned char hilight_bits[] = {
   0x00, 0x00, 0x00, 0x00, 0xff, 0xff, 0x00, 0x00, 0xff, 0xff, 0x00, 0x00,
   0xff, 0xff, 0x00, 0x00, 0xff, 0xff, 0x00, 0x00, 0xff, 0xff, 0x00, 0x00,
   0xff, 0xff, 0x00, 0x00, 0x00, 0x00, 0x00, 0x00 };
